<svg width="40" height="40" viewBox="0 0 40 40" fill="none" xmlns="http://www.w3.org/2000/svg">
<path d="M25.3125 28.125H6.25C5.4215 28.124 4.62722 27.7944 4.04139 27.2086C3.45555 26.6228 3.12599 25.8285 3.125 25V10C3.12599 9.1715 3.45555 8.37722 4.04139 7.79139C4.62722 7.20555 5.4215 6.87599 6.25 6.875H30C30.8285 6.87599 31.6228 7.20555 32.2086 7.79139C32.7944 8.37722 33.124 9.1715 33.125 10V20.6625C33.125 20.8283 33.0592 20.9872 32.9419 21.1044C32.8247 21.2217 32.6658 21.2875 32.5 21.2875C32.3342 21.2875 32.1753 21.2217 32.0581 21.1044C31.9408 20.9872 31.875 20.8283 31.875 20.6625V10C31.875 9.50272 31.6775 9.02581 31.3258 8.67417C30.9742 8.32254 30.4973 8.125 30 8.125H6.25C5.75272 8.125 5.27581 8.32254 4.92417 8.67417C4.57254 9.02581 4.375 9.50272 4.375 10V25C4.375 25.4973 4.57254 25.9742 4.92417 26.3258C5.27581 26.6775 5.75272 26.875 6.25 26.875H25.3125C25.4783 26.875 25.6372 26.9408 25.7544 27.0581C25.8717 27.1753 25.9375 27.3342 25.9375 27.5C25.9375 27.6658 25.8717 27.8247 25.7544 27.9419C25.6372 28.0592 25.4783 28.125 25.3125 28.125Z" fill="#2E2E2E"/>
<path d="M32.5 17.5H3.75C3.58424 17.5 3.42527 17.4342 3.30806 17.3169C3.19085 17.1997 3.125 17.0408 3.125 16.875V13.125C3.125 12.9592 3.19085 12.8003 3.30806 12.6831C3.42527 12.5658 3.58424 12.5 3.75 12.5H32.5C32.6658 12.5 32.8247 12.5658 32.9419 12.6831C33.0592 12.8003 33.125 12.9592 33.125 13.125V16.875C33.125 17.0408 33.0592 17.1997 32.9419 17.3169C32.8247 17.4342 32.6658 17.5 32.5 17.5ZM4.375 16.25H31.875V13.75H4.375V16.25Z" fill="#2E2E2E"/>
<path d="M25 21.25H22.5C22.3342 21.25 22.1753 21.1842 22.0581 21.0669C21.9408 20.9497 21.875 20.7908 21.875 20.625C21.875 20.4592 21.9408 20.3003 22.0581 20.1831C22.1753 20.0658 22.3342 20 22.5 20H25C25.1658 20 25.3247 20.0658 25.4419 20.1831C25.5592 20.3003 25.625 20.4592 25.625 20.625C25.625 20.7908 25.5592 20.9497 25.4419 21.0669C25.3247 21.1842 25.1658 21.25 25 21.25Z" fill="#2E2E2E"/>
<path d="M20 21.25H17.5C17.3342 21.25 17.1753 21.1842 17.0581 21.0669C16.9408 20.9497 16.875 20.7908 16.875 20.625C16.875 20.4592 16.9408 20.3003 17.0581 20.1831C17.1753 20.0658 17.3342 20 17.5 20H20C20.1658 20 20.3247 20.0658 20.4419 20.1831C20.5592 20.3003 20.625 20.4592 20.625 20.625C20.625 20.7908 20.5592 20.9497 20.4419 21.0669C20.3247 21.1842 20.1658 21.25 20 21.25Z" fill="#2E2E2E"/>
<path d="M15 25H7.5C7.33424 25 7.17527 24.9342 7.05806 24.8169C6.94085 24.6997 6.875 24.5408 6.875 24.375V20.625C6.875 20.4592 6.94085 20.3003 7.05806 20.1831C7.17527 20.0658 7.33424 20 7.5 20H15C15.1658 20 15.3247 20.0658 15.4419 20.1831C15.5592 20.3003 15.625 20.4592 15.625 20.625V24.375C15.625 24.5408 15.5592 24.6997 15.4419 24.8169C15.3247 24.9342 15.1658 25 15 25ZM8.125 23.75H14.375V21.25H8.125V23.75Z" fill="#2E2E2E"/>
<path d="M30.625 33.125C30.5758 33.125 30.5267 33.1194 30.4787 33.1081C28.7528 32.6856 27.2165 31.7011 26.1115 30.3096C25.0065 28.9181 24.3956 27.1986 24.375 25.4219V21.205C24.3749 21.0419 24.4386 20.8853 24.5525 20.7685C24.6664 20.6517 24.8213 20.5841 24.9844 20.58C26.8329 20.4985 28.6548 20.109 30.375 19.4275C30.4539 19.3934 30.539 19.3757 30.625 19.3757C30.711 19.3757 30.7961 19.3934 30.875 19.4275C32.5719 20.1661 34.3994 20.558 36.25 20.58C36.4158 20.58 36.5747 20.6459 36.6919 20.7631C36.8092 20.8803 36.875 21.0393 36.875 21.205V25.4219C36.8547 27.1989 36.2439 28.9186 35.1389 30.3104C34.0339 31.7021 32.4974 32.6868 30.7713 33.1094C30.7233 33.1202 30.6742 33.1254 30.625 33.125ZM25.625 21.795V25.42C25.6437 26.8907 26.1422 28.3151 27.0447 29.4764C27.9473 30.6378 29.2044 31.4726 30.625 31.8538C32.0456 31.4726 33.3027 30.6378 34.2053 29.4764C35.1078 28.3151 35.6063 26.8907 35.625 25.42V21.8125C33.9065 21.7182 32.2162 21.3351 30.625 20.6794C29.0222 21.2948 27.3374 21.6707 25.625 21.795Z" fill="#1A4499"/>
<path d="M30.0001 28.1249C29.8766 28.1249 29.7559 28.0884 29.6532 28.0199L27.7782 26.7699C27.6403 26.6779 27.5446 26.5349 27.5121 26.3723C27.4796 26.2097 27.5131 26.0409 27.6051 25.903C27.6971 25.7651 27.8401 25.6694 28.0027 25.6369C28.1652 25.6044 28.334 25.6379 28.472 25.7299L29.9207 26.6955L32.9957 23.6205C33.1136 23.5067 33.2715 23.4437 33.4353 23.4451C33.5992 23.4465 33.756 23.5122 33.8718 23.6281C33.9877 23.744 34.0535 23.9008 34.0549 24.0646C34.0563 24.2285 33.9933 24.3864 33.8795 24.5043L30.442 27.9418C30.3248 28.059 30.1658 28.1249 30.0001 28.1249Z" fill="#F8CE0B"/>
</svg>
