<svg width="40" height="40" viewBox="0 0 40 40" fill="none" xmlns="http://www.w3.org/2000/svg">
<g clip-path="url(#clip0_454_63396)">
<path d="M20.9182 1.03528L23.7445 2.67302L27.0295 2.66786C27.7119 2.66786 28.3048 3.05114 28.6048 3.61411L30.2146 6.41262L33.0639 8.05161C33.6372 8.38114 33.9583 8.98075 33.9589 9.59778H33.9593L33.9541 12.8826L35.6051 15.7316C35.942 16.3134 35.914 17.0063 35.5919 17.5452L33.9541 20.3715L33.9593 23.6565C33.9593 24.339 33.5761 24.9318 33.013 25.2318L30.2147 26.8416L28.5756 29.6909C28.2461 30.2642 27.6465 30.5854 27.0295 30.586V30.5864L23.7447 30.5811L20.8955 32.2321C20.3138 32.569 19.6209 32.5411 19.0819 32.2189L16.2557 30.5812L12.9707 30.5864C12.2883 30.5864 11.6954 30.2031 11.3954 29.6401L9.7856 26.8417L6.9363 25.2026C6.36302 24.8732 6.04185 24.2735 6.0413 23.6565H6.04084L6.04607 20.3717L4.39513 17.5226C4.05818 16.9408 4.08615 16.2479 4.40818 15.709L6.04599 12.8827L6.04084 9.59778C6.04084 8.91528 6.42412 8.32239 6.98708 8.02239L9.78552 6.41262L11.4246 3.56333C11.754 2.99005 12.3537 2.66895 12.9707 2.66833V2.66786L16.2555 2.67309L19.1046 1.02223C19.6864 0.685281 20.3793 0.713171 20.9182 1.03528Z" stroke="#2E2E2E" stroke-miterlimit="22.926" stroke-linecap="round" stroke-linejoin="round"/>
<path d="M22.9941 31.1126L27.6742 39.2188L29.8206 33.5007L35.8458 34.5009L31.1641 26.3919" stroke="#2E2E2E" stroke-miterlimit="22.926" stroke-linecap="round" stroke-linejoin="round"/>
<path d="M15.3131 6.96714C16.7295 6.27855 18.3199 5.89191 20.0007 5.89191C25.9295 5.89191 30.7358 10.6982 30.7358 16.627C30.7358 22.5558 25.9295 27.3621 20.0007 27.3621C14.0719 27.3621 9.26562 22.5558 9.26562 16.627C9.26562 14.946 9.65234 13.3553 10.3411 11.9389" stroke="#2E2E2E" stroke-miterlimit="22.926" stroke-linecap="round" stroke-linejoin="round"/>
<path d="M16.9939 31.1334L12.3259 39.2188L10.1795 33.5007L4.1543 34.5009L8.82398 26.4127" stroke="#2E2E2E" stroke-miterlimit="22.926" stroke-linecap="round" stroke-linejoin="round"/>
<path d="M12.4102 9.03613L12.4105 9.03574" stroke="#F8CE0B" stroke-miterlimit="2.613" stroke-linecap="round" stroke-linejoin="round"/>
<circle cx="20" cy="17" r="8" fill="#F8CE0B" fill-opacity="0.5"/>
<g clip-path="url(#clip1_454_63396)">
<path d="M18.7374 19.118L24.8578 13L25.8 13.941L18.7374 21L14.5 16.7647L15.4415 15.8237L18.7374 19.118Z" fill="#1A4499"/>
</g>
</g>
<defs>
<clipPath id="clip0_454_63396">
<rect width="40" height="40" fill="white"/>
</clipPath>
<clipPath id="clip1_454_63396">
<rect width="16" height="16" fill="white" transform="translate(12 9)"/>
</clipPath>
</defs>
</svg>
