<svg width="40" height="40" viewBox="0 0 40 40" fill="none" xmlns="http://www.w3.org/2000/svg">
<g clip-path="url(#clip0_454_63423)">
<path d="M31.4062 9.84424C31.8375 9.84424 32.1875 10.1942 32.1875 10.6255C32.1875 11.0567 31.8375 11.4067 31.4062 11.4067C30.975 11.4067 30.625 11.0567 30.625 10.6255C30.625 10.1942 30.975 9.84424 31.4062 9.84424Z" fill="#1A4499"/>
<path d="M3.20898 16.5259L4.33937 14.265C4.73906 13.4657 5.54227 12.9692 6.4357 12.9692H12.9698V7.50065C12.9698 6.20839 14.0212 5.15698 15.3135 5.15698H37.6563C38.9487 5.15698 40 6.20831 40 7.50065V27.8123C40 29.1046 38.9487 30.156 37.6563 30.156H35.3127C35.3127 31.3555 34.8591 32.4509 34.1153 33.2808H39.2188C39.6502 33.2808 40 33.6307 40 34.0621C40 34.4935 39.6502 34.8433 39.2188 34.8433H0.78281C0.351326 34.8433 0.00156021 34.4935 0.00156021 34.0621C0.00156021 33.6307 0.351326 33.2808 0.78281 33.2808H2.76141C2.0175 32.4508 1.56406 31.3555 1.56406 30.156C1.56406 30.1114 1.56617 30.0671 1.56742 30.0227C0.656406 29.7011 0.00164032 28.832 0.00164032 27.8123V23.4937C0.00164032 22.5821 -0.178905 23.4332 3.20898 16.5259ZM4.39055 17.6564L2.04688 22.3438H9.845V17.6564H4.39055ZM38.4376 23.9062H36.8752V25.4686H38.4376V23.9062ZM30.6254 33.2808C32.3484 33.2808 33.7502 31.8789 33.7502 30.156C33.7502 29.9432 33.7291 29.7337 33.687 29.53C33.3931 28.0821 32.1055 27.031 30.6254 27.031C29.1452 27.031 27.8576 28.082 27.5638 29.53C27.5636 29.5312 27.5634 29.5322 27.5631 29.5333C27.5216 29.7336 27.5005 29.9432 27.5005 30.156C27.5005 31.879 28.9023 33.2808 30.6254 33.2808ZM30.6254 25.4686C32.627 25.4686 34.3935 26.7509 35.0448 28.5935H37.6563C38.0871 28.5935 38.4376 28.243 38.4376 27.8122V27.031H36.0939C35.6624 27.031 35.3127 26.6811 35.3127 26.2497V23.1249C35.3127 22.6935 35.6624 22.3436 36.0939 22.3436H38.4376V7.50065C38.4376 7.06987 38.0871 6.7194 37.6563 6.7194H15.3135C14.8827 6.7194 14.5323 7.06987 14.5323 7.50065C14.5323 8.08183 14.5323 26.72 14.5323 28.5935H26.2064C26.8588 26.75 28.6246 25.4686 30.6254 25.4686ZM27.1355 33.2808C26.3916 32.4508 25.9381 31.3555 25.9381 30.156C25.3383 30.156 11.1941 30.156 10.9387 30.156C10.9387 31.3555 10.4852 32.4509 9.74141 33.2808H27.1355ZM6.25141 33.2808C7.97445 33.2808 9.37625 31.8789 9.37625 30.156C9.37625 29.9432 9.35516 29.7337 9.31297 29.53C9.01914 28.0821 7.73156 27.031 6.25141 27.031C4.77125 27.031 3.48359 28.082 3.18984 29.53C3.18961 29.5312 3.18938 29.5322 3.18914 29.5333C3.14758 29.7336 3.12656 29.9432 3.12656 30.156C3.12648 31.879 4.52836 33.2808 6.25141 33.2808ZM1.56406 27.8123C1.56406 28.0721 1.69211 28.3021 1.88781 28.4442C2.58086 26.681 4.30508 25.4687 6.25141 25.4687C8.25305 25.4687 10.0195 26.751 10.6708 28.5935H12.9699V14.5316H6.43578C6.13797 14.5316 5.87024 14.6972 5.73695 14.9637L5.1718 16.094H10.6262C11.0577 16.094 11.4074 16.4439 11.4074 16.8753V23.125C11.4074 23.5564 11.0577 23.9063 10.6262 23.9063H1.56406V27.8123Z" fill="#2E2E2E"/>
<path d="M18.4379 9.84424H28.2812C28.7127 9.84424 29.0625 10.1941 29.0625 10.6255C29.0625 11.0569 28.7127 11.4067 28.2812 11.4067H18.4379C18.0064 11.4067 17.6566 11.0569 17.6566 10.6255C17.6566 10.1941 18.0065 9.84424 18.4379 9.84424Z" fill="#F8CE0B"/>
<path d="M18.4377 12.9692H25.1562C25.5877 12.9692 25.9375 13.3191 25.9375 13.7505C25.9375 14.1819 25.5877 14.5317 25.1562 14.5317H18.4377C18.0062 14.5317 17.6565 14.1819 17.6565 13.7505C17.6565 13.3191 18.0063 12.9692 18.4377 12.9692Z" fill="#1A4499"/>
<path d="M6.25008 28.5933C7.11164 28.5933 7.8125 29.2942 7.8125 30.1557C7.8125 31.0172 7.11156 31.7181 6.25008 31.7181C5.38852 31.7181 4.68766 31.0172 4.68766 30.1557C4.68766 29.2941 5.38852 28.5933 6.25008 28.5933Z" fill="#1A4499"/>
<path d="M30.6251 28.5933C31.4866 28.5933 32.1875 29.2942 32.1875 30.1557C32.1875 31.0172 31.4866 31.7181 30.6251 31.7181C29.7635 31.7181 29.0627 31.0172 29.0627 30.1557C29.0627 29.2941 29.7635 28.5933 30.6251 28.5933Z" fill="#1A4499"/>
</g>
<defs>
<clipPath id="clip0_454_63423">
<rect width="40" height="40" fill="white" transform="matrix(-1 0 0 1 40 0)"/>
</clipPath>
</defs>
</svg>
