<svg width="1352" height="609" viewBox="0 0 1352 609" fill="none" xmlns="http://www.w3.org/2000/svg">
<g filter="url(#filter0_d_1029_72072)">
<path fill-rule="evenodd" clip-rule="evenodd" d="M1058 31.5C1058 22.9396 1051.06 16 1042.5 16H32C23.1634 16 16 23.1634 16 32V577C16 585.837 23.1634 593 32 593H1320C1328.84 593 1336 585.837 1336 577V32C1336 23.1634 1328.84 16 1320 16H1304.5C1295.94 16 1289 22.9396 1289 31.5C1289 40.0604 1282.06 47 1273.5 47H1073.5C1064.94 47 1058 40.0604 1058 31.5Z" fill="white"/>
</g>
<defs>
<filter id="filter0_d_1029_72072" x="-4" y="0" width="1360" height="617" filterUnits="userSpaceOnUse" color-interpolation-filters="sRGB">
<feFlood flood-opacity="0" result="BackgroundImageFix"/>
<feColorMatrix in="SourceAlpha" type="matrix" values="0 0 0 0 0 0 0 0 0 0 0 0 0 0 0 0 0 0 127 0" result="hardAlpha"/>
<feOffset dy="4"/>
<feGaussianBlur stdDeviation="10"/>
<feComposite in2="hardAlpha" operator="out"/>
<feColorMatrix type="matrix" values="0 0 0 0 0 0 0 0 0 0 0 0 0 0 0 0 0 0 0.03 0"/>
<feBlend mode="normal" in2="BackgroundImageFix" result="effect1_dropShadow_1029_72072"/>
<feBlend mode="normal" in="SourceGraphic" in2="effect1_dropShadow_1029_72072" result="shape"/>
</filter>
</defs>
</svg>
