<svg width="54" height="54" viewBox="0 0 54 54" fill="none" xmlns="http://www.w3.org/2000/svg">
<g clip-path="url(#clip0_742_72061)">
<path fill-rule="evenodd" clip-rule="evenodd" d="M43.8539 0.78134C44.0737 1.01727 44.2445 1.29423 44.3572 1.5963C44.5756 2.20221 44.5472 2.86994 44.2776 3.45497C44.0081 4.04011 43.5191 4.49553 42.9165 4.72302L12.8137 15.9502C12.5394 16.0534 12.2485 16.1054 11.9554 16.1035C11.3797 16.1047 10.822 15.9033 10.3799 15.5346C9.93777 15.166 9.6394 14.6535 9.5371 14.0871C9.43479 13.5206 9.53499 12.9362 9.82018 12.4362C10.1054 11.9361 10.5574 11.5523 11.097 11.352L22.0636 7.25965C21.8118 6.20096 21.9563 5.08678 22.4699 4.12744C22.9835 3.1681 23.8306 2.43003 24.8514 2.05277C25.8721 1.6754 26.9956 1.685 28.0097 2.07945C29.0239 2.47401 29.8584 3.22632 30.3557 4.1942L41.1994 0.155488C41.5016 0.0425313 41.8227 -0.00978121 42.1448 0.00150395C42.4672 0.0127891 42.7839 0.087461 43.0771 0.221301C43.3703 0.355141 43.6344 0.545406 43.8539 0.78134ZM42.1572 46.4667L44.1881 19.8203C44.2184 19.4792 44.1774 19.1355 44.068 18.811C43.9584 18.4865 43.7829 18.1882 43.552 17.9351C43.3196 17.694 43.0411 17.5019 42.7332 17.3703C42.4251 17.2387 42.0938 17.1701 41.7588 17.1688H16.1546C15.8191 17.1666 15.4868 17.2335 15.1783 17.3654C14.8698 17.4972 14.5917 17.6911 14.3613 17.9351C14.1312 18.1863 13.9542 18.4814 13.841 18.8028C13.7277 19.1241 13.6805 19.465 13.7023 19.8051L15.7638 46.4668C15.9253 48.5129 16.8504 50.4232 18.3553 51.8187C19.8602 53.2144 21.8349 53.9931 23.8873 54H34.0263C36.0775 53.986 38.0492 53.2054 39.5537 51.8114C41.0583 50.4174 41.9871 48.5109 42.1572 46.4667Z" fill="#D73333"/>
</g>
<defs>
<clipPath id="clip0_742_72061">
<rect width="54" height="54" fill="white"/>
</clipPath>
</defs>
</svg>
