<svg width="16" height="16" viewBox="0 0 16 16" fill="none" xmlns="http://www.w3.org/2000/svg">
<path d="M9.15425 2.33977L10.3276 4.68643C10.4876 5.0131 10.9142 5.32643 11.2742 5.38643L13.4009 5.73977C14.7609 5.96643 15.0809 6.9531 14.1009 7.92643L12.4476 9.57977C12.1676 9.85977 12.0142 10.3998 12.1009 10.7864L12.5742 12.8331C12.9476 14.4531 12.0876 15.0798 10.6542 14.2331L8.66092 13.0531C8.30092 12.8398 7.70758 12.8398 7.34092 13.0531L5.34758 14.2331C3.92092 15.0798 3.05425 14.4464 3.42758 12.8331L3.90092 10.7864C3.98758 10.3998 3.83425 9.85977 3.55425 9.57977L1.90092 7.92643C0.927583 6.9531 1.24092 5.96643 2.60092 5.73977L4.72758 5.38643C5.08092 5.32643 5.50758 5.0131 5.66758 4.68643L6.84092 2.33977C7.48092 1.06643 8.52092 1.06643 9.15425 2.33977Z" fill="#F8CE0B"/>
</svg>
