<svg width="22" height="22" viewBox="0 0 22 22" fill="none" xmlns="http://www.w3.org/2000/svg">
<path d="M2.9889 13.6604L1.46891 12.1404C0.848906 11.5204 0.848906 10.5004 1.46891 9.88041L2.9889 8.36039C3.2489 8.10039 3.4589 7.59038 3.4589 7.23038V5.08036C3.4589 4.20036 4.1789 3.48038 5.0589 3.48038H7.2089C7.5689 3.48038 8.0789 3.27041 8.3389 3.01041L9.85889 1.49039C10.4789 0.870391 11.4989 0.870391 12.1189 1.49039L13.6389 3.01041C13.8989 3.27041 14.4089 3.48038 14.7689 3.48038H16.9189C17.7989 3.48038 18.5189 4.20036 18.5189 5.08036V7.23038C18.5189 7.59038 18.7289 8.10039 18.9889 8.36039L20.5089 9.88041C21.1289 10.5004 21.1289 11.5204 20.5089 12.1404L18.9889 13.6604C18.7289 13.9204 18.5189 14.4304 18.5189 14.7904V16.9403C18.5189 17.8203 17.7989 18.5404 16.9189 18.5404H14.7689C14.4089 18.5404 13.8989 18.7504 13.6389 19.0104L12.1189 20.5304C11.4989 21.1504 10.4789 21.1504 9.85889 20.5304L8.3389 19.0104C8.0789 18.7504 7.5689 18.5404 7.2089 18.5404H5.0589C4.1789 18.5404 3.4589 17.8203 3.4589 16.9403V14.7904C3.4589 14.4204 3.2489 13.9104 2.9889 13.6604Z" stroke="#E0144C" stroke-width="1.5" stroke-linecap="round" stroke-linejoin="round"/>
</svg>
