<svg width="33" height="34" viewBox="0 0 33 34" fill="none" xmlns="http://www.w3.org/2000/svg">
<path d="M15.2307 1.72327C15.8706 1.11069 16.8794 1.11069 17.5193 1.72327L19.2441 3.37441C19.9727 4.07191 20.9796 4.39907 21.979 4.26304L24.3449 3.94103C25.2226 3.82157 26.0388 4.41453 26.1964 5.28624L26.6212 7.63583C26.8007 8.62837 27.423 9.4849 28.3115 9.9623L30.4148 11.0924C31.1952 11.5117 31.5069 12.4711 31.122 13.269L30.0847 15.4196C29.6465 16.3281 29.6465 17.3868 30.0847 18.2953L31.122 20.4458C31.5069 21.2437 31.1952 22.2032 30.4148 22.6224L28.3115 23.7525C27.423 24.2299 26.8007 25.0865 26.6212 26.079L26.1964 28.4286C26.0388 29.3003 25.2226 29.8933 24.3449 29.7738L21.979 29.4518C20.9796 29.3158 19.9727 29.6429 19.2441 30.3404L17.5193 31.9916C16.8794 32.6042 15.8706 32.6042 15.2307 31.9916L13.5059 30.3404C12.7773 29.6429 11.7704 29.3158 10.771 29.4518L8.40513 29.7738C7.52738 29.8933 6.71123 29.3003 6.55361 28.4286L6.12876 26.079C5.94929 25.0865 5.32699 24.2299 4.43848 23.7525L2.33518 22.6224C1.55484 22.2032 1.2431 21.2437 1.62796 20.4458L2.6653 18.2953C3.10351 17.3868 3.10351 16.3281 2.6653 15.4196L1.62796 13.269C1.2431 12.4711 1.55484 11.5117 2.33518 11.0924L4.43848 9.9623C5.32699 9.4849 5.94929 8.62837 6.12876 7.63583L6.55361 5.28624C6.71123 4.41453 7.52738 3.82157 8.40513 3.94103L10.771 4.26304C11.7704 4.39907 12.7773 4.07191 13.5059 3.37441L15.2307 1.72327Z" fill="#E0144C" stroke="#E0144C" stroke-width="1.65476"/>
</svg>
