<svg width="24" height="24" viewBox="0 0 24 24" fill="none" xmlns="http://www.w3.org/2000/svg">
<path fill-rule="evenodd" clip-rule="evenodd" d="M9.95424 13.757C9.08429 12.8886 8.3132 11.9274 7.65781 10.891C7.41849 10.5125 7.42102 10.0578 7.66437 9.68201L8.59969 8.23795C8.79923 7.92971 8.83731 7.57802 8.7083 7.2343L7.09946 2.94641C6.84754 2.27491 6.05015 2.0092 5.44571 2.39537C4.69762 2.87338 3.94936 3.35139 3.20123 3.8294C2.17692 4.48388 1.70136 5.66038 1.98353 6.84276C2.85198 10.482 4.74616 13.757 7.36414 16.3471C9.95424 18.9651 13.2292 20.8593 16.8685 21.7277C18.0508 22.0098 19.2274 21.5343 19.8818 20.51C20.3598 19.7619 20.8379 19.0136 21.3159 18.2655C21.702 17.661 21.4363 16.8637 20.7648 16.6117L16.477 15.0029C16.1332 14.8739 15.7816 14.912 15.4733 15.1116L14.0293 16.0469C13.6535 16.2902 13.1987 16.2927 12.8202 16.0534C11.7838 15.398 10.8226 14.6269 9.95424 13.757Z" fill="#1A4499"/>
<path d="M21.7497 9.48831C21.7497 9.62139 21.6969 9.74903 21.6027 9.84314C21.5086 9.93725 21.164 9.99012 21.0309 9.99012C21.0389 8.99658 20.85 8.22829 20.4753 7.30809C20.1006 6.38788 19.5474 5.55097 18.8476 4.84561C18.1479 4.14026 17.3154 3.58041 16.3982 3.19838C15.481 2.81634 14.7143 2.61967 13.7207 2.6197C13.7207 2.48661 13.7736 2.14197 13.8677 2.04786C13.9618 1.95375 14.0894 1.90088 14.2225 1.90088C15.2161 1.90085 16.1998 2.09752 17.117 2.47956C18.0342 2.8616 18.8667 3.42144 19.5665 4.12679C20.2662 4.83215 20.8194 5.66907 21.1941 6.58927C21.5688 7.50948 21.7577 8.49476 21.7497 9.48831Z" fill="#1A4499"/>
<path d="M18.8997 9.35684C18.8997 9.5088 18.839 9.65452 18.7311 9.76197C18.6232 9.86942 18.4768 9.92978 18.3242 9.92978C18.3311 9.32354 18.2171 8.72197 17.9888 8.15991C17.7605 7.59785 17.4225 7.08646 16.9943 6.65537C16.5662 6.22427 16.0564 5.88204 15.4944 5.64847C14.9325 5.41491 14.3296 5.29467 13.7207 5.29471C13.7207 5.14276 13.7813 4.99703 13.8892 4.88958C13.9972 4.78213 14.1435 4.72177 14.2961 4.72177C14.908 4.71792 15.5144 4.83553 16.0801 5.06775C16.6457 5.29996 17.1592 5.64212 17.5905 6.07421C18.0218 6.5063 18.3623 7.01966 18.592 7.58427C18.8217 8.14889 18.9361 8.75344 18.9284 9.36257L18.8997 9.35684Z" fill="#1A4499"/>
<path d="M16.3102 9.64375C16.3102 9.71973 16.2799 9.7926 16.2259 9.84632C16.172 9.90004 16.0988 9.93022 16.0225 9.93022C16.0259 9.6271 15.9689 9.32632 15.8547 9.04529C15.7406 8.76426 15.5716 8.50856 15.3575 8.29302C15.1434 8.07747 14.8885 7.90635 14.6076 7.78957C14.3266 7.67279 14.0252 7.61267 13.7207 7.61269C13.7207 7.53671 13.751 7.46385 13.805 7.41012C13.8589 7.3564 13.9321 7.32622 14.0084 7.32622C14.3143 7.32429 14.6176 7.3831 14.9004 7.49921C15.1832 7.61531 15.44 7.78639 15.6556 8.00244C15.8713 8.21848 16.0415 8.47516 16.1564 8.75747C16.2712 9.03978 16.3284 9.34205 16.3246 9.64662L16.3102 9.64375Z" fill="#1A4499"/>
<path fill-rule="evenodd" clip-rule="evenodd" d="M18.1881 20.4081C14.5489 19.5397 11.2739 17.6455 8.68382 15.0275C6.06576 12.4374 4.17158 9.16243 3.30317 5.52318C3.14545 4.86233 3.22445 4.20331 3.5037 3.63623C3.40286 3.70065 3.30206 3.76507 3.20123 3.8295C2.17692 4.48398 1.70136 5.66048 1.98353 6.84286C2.85198 10.4821 4.74616 13.7571 7.36414 16.3472C9.95424 18.9652 13.2292 20.8594 16.8685 21.7278C18.0508 22.0099 19.2274 21.5344 19.8818 20.5101C19.9463 20.4092 20.0107 20.3084 20.0751 20.2076C19.508 20.4868 18.849 20.5658 18.1881 20.4081Z" fill="#1A4499"/>
</svg>
