<svg width="32" height="32" viewBox="0 0 32 32" fill="none" xmlns="http://www.w3.org/2000/svg">
<path d="M16.0002 3.2002C8.94228 3.2002 3.2002 8.94228 3.2002 16.0002V21.3032C3.2002 22.614 4.34836 23.6802 5.7602 23.6802H7.0402C7.37967 23.6802 7.70525 23.5453 7.94529 23.3053C8.18534 23.0652 8.3202 22.7397 8.3202 22.4002V15.8172C8.3202 15.4777 8.18534 15.1521 7.94529 14.9121C7.70525 14.672 7.37967 14.5372 7.0402 14.5372H5.87796C6.58964 9.58356 10.852 5.7602 16.0002 5.7602C21.1484 5.7602 25.4108 9.58356 26.1224 14.5372H24.9602C24.6207 14.5372 24.2951 14.672 24.0551 14.9121C23.8151 15.1521 23.6802 15.4777 23.6802 15.8172V23.6802C23.6802 25.092 22.532 26.2402 21.1202 26.2402H18.5602V24.9602H13.4402V28.8002H21.1202C23.9439 28.8002 26.2402 26.5039 26.2402 23.6802C27.652 23.6802 28.8002 22.614 28.8002 21.3032V16.0002C28.8002 8.94228 23.0581 3.2002 16.0002 3.2002Z" fill="#1A4499"/>
</svg>
