<svg width="42" height="30" viewBox="0 0 42 30" fill="none" xmlns="http://www.w3.org/2000/svg">
<g clip-path="url(#clip0_962_85914)">
<path d="M41.2433 17.1277C41.2433 18.7122 40.768 19.9511 39.8028 20.8586C38.8377 21.7661 37.5701 22.2126 35.9999 22.2126H32.6724C32.4563 22.2126 32.3555 21.7661 32.3555 20.873C32.3555 19.9366 32.4563 19.4613 32.6724 19.4613H35.9999C36.7634 19.4613 37.3972 19.2596 37.8726 18.8419C38.3479 18.4241 38.5928 17.8479 38.5928 17.0989V11.9131H41.2433V17.1277Z" fill="#858585"/>
<path fill-rule="evenodd" clip-rule="evenodd" d="M27.3442 11.207C29.9659 11.207 32.1267 13.3534 32.1267 15.9895V20.8872H27.373C24.7369 20.8872 22.5762 18.7264 22.5762 16.0903V15.9895C22.5762 13.3678 24.7225 11.207 27.3586 11.207H27.3442Z" stroke="#858585" stroke-width="2.69373" stroke-miterlimit="2.61313"/>
<path d="M21.2207 28.2047H25.7295C29.2443 28.2047 32.1253 25.3237 32.1253 21.8089V20.8726" stroke="#858585" stroke-width="2.69373" stroke-miterlimit="2.61313" stroke-linecap="round"/>
<path d="M8.61685 26.7642C8.71769 26.7642 8.80412 26.865 8.86174 27.0379C8.90495 27.2108 8.94817 27.5997 8.94817 28.1759C8.94817 28.7377 8.91936 29.0978 8.86174 29.2707C8.81852 29.4435 8.71769 29.53 8.61685 29.53H4.95799C3.34464 29.53 2.10581 29.0402 1.25592 28.0751C0.42043 27.1099 -0.0117188 25.7271 -0.0117188 23.9264V15.0386H2.63879V23.7968C2.63879 25.7703 3.44547 26.7786 5.07323 26.7786H8.60245L8.61685 26.7642Z" fill="#858585"/>
<path d="M8.38564 13.7567C5.72072 13.7567 3.632 12.9788 2.1771 11.4231C0.722201 9.86732 0.00195312 7.69218 0.00195312 4.89761V1.59888H2.65247V4.82559C2.65247 6.84228 3.14223 8.38361 4.12177 9.43518C5.10131 10.4867 6.5418 11.0053 8.44326 11.0053H8.5729C10.4023 11.0053 11.8716 10.4723 12.9664 9.40637C14.0612 8.3404 14.6086 6.8999 14.6086 5.08488V1.58447H17.2591V4.82559C17.2591 6.65502 16.8846 8.25397 16.1499 9.59363C15.4153 10.9333 14.3781 11.9704 13.0817 12.6763C11.7708 13.3821 10.2439 13.7423 8.5585 13.7423H8.37123L8.38564 13.7567Z" fill="#858585"/>
<path fill-rule="evenodd" clip-rule="evenodd" d="M13.759 18.4961C11.1373 18.4961 8.97656 20.6424 8.97656 23.2785V28.1762H13.7302C16.3663 28.1762 18.527 26.0155 18.527 23.3794V23.2785C18.527 20.6568 16.3807 18.4961 13.7446 18.4961H13.759Z" stroke="#858585" stroke-width="2.69373" stroke-miterlimit="2.61313"/>
<path d="M41.245 6.80633C41.245 6.11021 39.2393 5.5459 36.7651 5.5459C34.2909 5.5459 32.2852 6.11021 32.2852 6.80633C32.2852 7.50245 34.2909 8.06677 36.7651 8.06677C39.2393 8.06677 41.245 7.50245 41.245 6.80633Z" fill="#858585"/>
<path d="M41.2443 12.165C41.2443 11.3018 40.6509 10.6021 39.919 10.6021C39.1871 10.6021 38.5938 11.3018 38.5938 12.165C38.5938 13.0282 39.1871 13.7279 39.919 13.7279C40.6509 13.7279 41.2443 13.0282 41.2443 12.165Z" fill="#858585"/>
<path d="M2.65247 15.2622C2.65247 14.399 2.05913 13.6992 1.32721 13.6992C0.595291 13.6992 0.00195312 14.399 0.00195312 15.2622C0.00195312 16.1253 0.595291 16.8251 1.32721 16.8251C2.05913 16.8251 2.65247 16.1253 2.65247 15.2622Z" fill="#858585"/>
<path d="M8.76106 3.1979C9.64414 3.1979 10.36 2.48203 10.36 1.59895C10.36 0.715874 9.64414 0 8.76106 0C7.87798 0 7.16211 0.715874 7.16211 1.59895C7.16211 2.48203 7.87798 3.1979 8.76106 3.1979Z" fill="#858585"/>
<path d="M17.2736 1.83686C17.2736 0.973677 16.6802 0.273926 15.9483 0.273926C15.2164 0.273926 14.623 0.973677 14.623 1.83686C14.623 2.70005 15.2164 3.3998 15.9483 3.3998C16.6802 3.3998 17.2736 2.70005 17.2736 1.83686Z" fill="#858585"/>
<path d="M2.65247 1.83686C2.65247 0.973677 2.05913 0.273926 1.32721 0.273926C0.595291 0.273926 0.00195312 0.973677 0.00195312 1.83686C0.00195312 2.70005 0.595291 3.3998 1.32721 3.3998C2.05913 3.3998 2.65247 2.70005 2.65247 1.83686Z" fill="#858585"/>
</g>
<defs>
<clipPath id="clip0_962_85914">
<rect width="41.2486" height="29.559" fill="white"/>
</clipPath>
</defs>
</svg>
