<svg width="16" height="17" viewBox="0 0 16 17" fill="none" xmlns="http://www.w3.org/2000/svg">
<path d="M11.9331 6.53348C10.4797 6.38681 9.01307 6.31348 7.55307 6.31348C6.6864 6.31348 5.81974 6.36014 4.95974 6.44681L4.06641 6.53348" fill="#328C34"/>
<path d="M11.9331 6.53348C10.4797 6.38681 9.01307 6.31348 7.55307 6.31348C6.6864 6.31348 5.81974 6.36014 4.95974 6.44681L4.06641 6.53348" stroke="#B0B0B0" stroke-linecap="round" stroke-linejoin="round"/>
<path d="M6.47266 6.09346L6.56599 5.52012C6.63266 5.10679 6.68598 4.79346 7.42598 4.79346H8.57265C9.31265 4.79346 9.36598 5.12012 9.43265 5.52012L9.52598 6.08679" stroke="#B0B0B0" stroke-linecap="round" stroke-linejoin="round"/>
<path d="M10.9933 6.58691L10.7067 10.9869C10.66 11.6736 10.62 12.2069 9.4 12.2069H6.59333C5.37333 12.2069 5.33333 11.6736 5.28666 10.9869L5 6.58691" stroke="#B0B0B0" stroke-linecap="round" stroke-linejoin="round"/>
</svg>
