<svg width="38" height="88" viewBox="0 0 38 88" fill="none" xmlns="http://www.w3.org/2000/svg">
<path d="M30.8096 66.5556H7.11133C6.14909 66.5556 5.36914 65.7757 5.36914 64.8134V58.7773C5.36914 57.8151 6.14909 57.0352 7.11133 57.0352H30.8096C31.7718 57.0352 32.5518 57.8151 32.5518 58.7773V64.8134C32.5518 65.7757 31.7718 66.5556 30.8096 66.5556Z" fill="#8DD442"/>
<path d="M30.8096 52.4941H7.11133C6.14909 52.4941 5.36914 51.7141 5.36914 50.7519V44.7158C5.36914 43.7536 6.14909 42.9736 7.11133 42.9736H30.8096C31.7718 42.9736 32.5518 43.7536 32.5518 44.7158V50.7519C32.5518 51.7139 31.7718 52.4941 30.8096 52.4941Z" fill="#8DD442"/>
<path d="M30.8096 38.4326H7.11133C6.14909 38.4326 5.36914 37.6526 5.36914 36.6904V30.6543C5.36914 29.6921 6.14909 28.9121 7.11133 28.9121H30.8096C31.7718 28.9121 32.5518 29.6921 32.5518 30.6543V36.6904C32.5518 37.6526 31.7718 38.4326 30.8096 38.4326Z" fill="#8DD442"/>
<path d="M30.8096 24.3711H7.11133C6.14909 24.3711 5.36914 23.5911 5.36914 22.6289V16.5928C5.36914 15.6305 6.14909 14.8506 7.11133 14.8506H30.8096C31.7718 14.8506 32.5518 15.6305 32.5518 16.5928V22.6289C32.5518 23.5911 31.7718 24.3711 30.8096 24.3711Z" fill="#8DD442"/>
<path d="M32.6318 74.0373H5.28933C2.3728 74.0373 0 71.6645 0 68.7479V13.0511C0 10.1345 2.3728 7.76172 5.28933 7.76172H32.6318C35.5486 7.76172 37.9211 10.1345 37.9211 13.0511V68.7482C37.9211 71.6648 35.5486 74.0373 32.6318 74.0373ZM5.28933 9.18137C3.15559 9.18137 1.41965 10.9173 1.41965 13.0511V68.7482C1.41965 70.882 3.15559 72.6179 5.28933 72.6179H32.6318C34.7656 72.6179 36.5015 70.882 36.5015 68.7482V13.0511C36.5015 10.9173 34.7656 9.18137 32.6318 9.18137H5.28933Z" fill="#C8D2E7"/>
<path d="M28.7572 9.18093H9.16602V3.83339C9.16602 2.2025 10.4928 0.875977 12.1234 0.875977H25.7995C27.4304 0.875977 28.7572 2.20278 28.7572 3.83339V9.18093ZM10.5857 7.76128H27.3375V3.83339C27.3375 2.98529 26.6476 2.29563 25.7995 2.29563H12.1234C11.2756 2.29563 10.5857 2.98558 10.5857 3.83339V7.76128Z" fill="#C8D2E7"/>
<path d="M13.4889 87.0399H12.5763V80.99L10.7461 81.6623V80.8378L13.3466 79.8613H13.4889V87.0399Z" fill="#C8D2E7"/>
<path d="M18.7047 83.9932C18.7047 84.579 18.6525 85.0719 18.5477 85.4728C18.4429 85.8734 18.2933 86.1974 18.0988 86.4444C17.9043 86.6914 17.6686 86.8688 17.3921 86.9767C17.1155 87.0846 16.8041 87.1386 16.4574 87.1386C16.1138 87.1386 15.8029 87.0846 15.525 86.9767C15.247 86.8688 15.0096 86.6914 14.8134 86.4444C14.6172 86.1974 14.465 85.8737 14.3572 85.4728C14.2493 85.0721 14.1953 84.579 14.1953 83.9932V82.904C14.1953 82.3186 14.2484 81.828 14.3549 81.4319C14.4611 81.0361 14.6124 80.7172 14.8086 80.475C15.0048 80.2328 15.2413 80.0596 15.5176 79.9549C15.7941 79.8504 16.1039 79.7979 16.4474 79.7979C16.7941 79.7979 17.1067 79.8504 17.3847 79.9549C17.6627 80.0596 17.8998 80.2328 18.0962 80.475C18.2924 80.7172 18.4429 81.0361 18.5477 81.4319C18.6525 81.8277 18.7047 82.3183 18.7047 82.904V83.9932ZM17.797 82.7516C17.797 82.3493 17.7683 82.0074 17.7109 81.726C17.6536 81.4447 17.5678 81.2167 17.4534 81.0415C17.3387 80.8666 17.1973 80.7397 17.0289 80.6613C16.8603 80.5826 16.6666 80.5435 16.4474 80.5435C16.2317 80.5435 16.0394 80.5826 15.8711 80.6613C15.7024 80.7397 15.5619 80.8666 15.4492 81.0415C15.3361 81.2167 15.2504 81.4447 15.1916 81.726C15.1329 82.0074 15.1033 82.3493 15.1033 82.7516V84.1355C15.1033 84.5347 15.1326 84.8771 15.1916 85.1633C15.2507 85.4495 15.3381 85.6843 15.4543 85.8674C15.5701 86.0506 15.7126 86.1849 15.881 86.2698C16.0494 86.3547 16.2416 86.3972 16.4577 86.3972C16.68 86.3972 16.8748 86.3547 17.0414 86.2698C17.2084 86.1846 17.3481 86.0506 17.4611 85.8674C17.5738 85.6843 17.6581 85.4495 17.7138 85.1633C17.7691 84.8771 17.7973 84.5344 17.7973 84.1355V82.7516H17.797Z" fill="#C8D2E7"/>
<path d="M23.8004 83.9932C23.8004 84.579 23.7481 85.0719 23.6434 85.4728C23.5386 85.8734 23.389 86.1974 23.1945 86.4444C22.9997 86.6914 22.7643 86.8688 22.4878 86.9767C22.2112 87.0846 21.8998 87.1386 21.5531 87.1386C21.2095 87.1386 20.8986 87.0846 20.6207 86.9767C20.3427 86.8688 20.1056 86.6914 19.9091 86.4444C19.7129 86.1974 19.5608 85.8737 19.4529 85.4728C19.345 85.0721 19.291 84.579 19.291 83.9932V82.904C19.291 82.3186 19.3444 81.828 19.4506 81.4319C19.5568 81.0361 19.7081 80.7172 19.9043 80.475C20.1005 80.2328 20.337 80.0596 20.6133 79.9549C20.8898 79.8504 21.1996 79.7979 21.5432 79.7979C21.8898 79.7979 22.2024 79.8504 22.4804 79.9549C22.7584 80.0596 22.9957 80.2328 23.1919 80.475C23.3881 80.7172 23.5386 81.0361 23.6434 81.4319C23.7481 81.8277 23.8004 82.3183 23.8004 82.904V83.9932ZM22.8929 82.7516C22.8929 82.3493 22.8643 82.0074 22.8069 81.726C22.7496 81.4447 22.6638 81.2167 22.5494 81.0415C22.4347 80.8666 22.2933 80.7397 22.1249 80.6613C21.9565 80.5826 21.7626 80.5435 21.5434 80.5435C21.3276 80.5435 21.1354 80.5826 20.9671 80.6613C20.7987 80.7397 20.6579 80.8666 20.5451 81.0415C20.4321 81.2167 20.3464 81.4447 20.2876 81.726C20.2288 82.0074 20.1993 82.3493 20.1993 82.7516V84.1355C20.1993 84.5347 20.2286 84.8771 20.2876 85.1633C20.3467 85.4495 20.4341 85.6843 20.5502 85.8674C20.6661 86.0506 20.8086 86.1849 20.977 86.2698C21.1454 86.3547 21.3376 86.3972 21.5537 86.3972C21.776 86.3972 21.9707 86.3547 22.1374 86.2698C22.3044 86.1846 22.4441 86.0506 22.5571 85.8674C22.6698 85.6843 22.7541 85.4495 22.8098 85.1633C22.8651 84.8771 22.8932 84.5344 22.8932 84.1355V82.7516H22.8929Z" fill="#C8D2E7"/>
<path d="M24.3359 81.2697C24.3359 81.067 24.3695 80.8765 24.4367 80.6981C24.5038 80.5198 24.6003 80.3637 24.7261 80.2297C24.8518 80.0956 25.0057 79.9892 25.1875 79.9108C25.3689 79.8322 25.5725 79.793 25.7982 79.793C26.027 79.793 26.2326 79.8322 26.414 79.9108C26.5955 79.9892 26.7485 80.0956 26.8729 80.2297C26.9972 80.364 27.0929 80.5201 27.1599 80.6981C27.2269 80.8765 27.2607 81.067 27.2607 81.2697V81.6476C27.2607 81.8472 27.2281 82.036 27.1625 82.2143C27.0969 82.3926 27.0012 82.5479 26.8754 82.6805C26.7494 82.8131 26.5966 82.9188 26.4166 82.9971C26.2366 83.0758 26.0338 83.115 25.8081 83.115C25.579 83.115 25.3737 83.0758 25.1923 82.9971C25.0108 82.9188 24.8561 82.8131 24.7286 82.6805C24.6011 82.5482 24.5038 82.3926 24.4367 82.2143C24.3695 82.036 24.3359 81.8472 24.3359 81.6476V81.2697ZM25.0131 81.6476C25.0131 81.762 25.0296 81.8716 25.0622 81.9764C25.0949 82.0812 25.144 82.1743 25.2093 82.2561C25.2746 82.3381 25.3572 82.4031 25.4572 82.4523C25.5568 82.5014 25.6738 82.5258 25.8081 82.5258C25.9387 82.5258 26.0534 82.5014 26.1517 82.4523C26.2499 82.4031 26.3308 82.3387 26.3947 82.2586C26.4583 82.1785 26.5057 82.0851 26.537 81.9789C26.5679 81.8728 26.5835 81.7623 26.5835 81.6479V81.27C26.5835 81.1555 26.5671 81.0451 26.5344 80.9389C26.5018 80.8327 26.4535 80.7385 26.3896 80.6567C26.3257 80.5749 26.244 80.5096 26.1443 80.4605C26.0444 80.4114 25.9291 80.387 25.7982 80.387C25.6642 80.387 25.548 80.4114 25.4498 80.4605C25.3516 80.5096 25.2706 80.5752 25.2068 80.6567C25.1429 80.7385 25.0946 80.8324 25.0619 80.9389C25.0293 81.0451 25.0128 81.1558 25.0128 81.27L25.0131 81.6476ZM26.0143 86.5005L25.4989 86.1766L28.9876 80.5928L29.5026 80.9168L26.0143 86.5005ZM27.8149 85.2884C27.8149 85.0891 27.8484 84.8992 27.9154 84.7192C27.9825 84.5394 28.079 84.383 28.2051 84.2507C28.3308 84.1181 28.4847 84.0127 28.6662 83.9341C28.8476 83.8557 29.0515 83.8165 29.2772 83.8165C29.506 83.8165 29.7113 83.8557 29.893 83.9341C30.0745 84.0127 30.2284 84.1181 30.3541 84.2507C30.4799 84.383 30.5764 84.5394 30.6437 84.7192C30.7107 84.8992 30.7442 85.0888 30.7442 85.2884V85.6712C30.7442 85.8739 30.7105 86.0647 30.6437 86.2427C30.5764 86.421 30.4802 86.5763 30.3541 86.7089C30.2284 86.8415 30.0753 86.9472 29.8953 87.0255C29.7153 87.1042 29.5126 87.1434 29.2868 87.1434C29.0577 87.1434 28.8527 87.1042 28.671 87.0255C28.4896 86.9472 28.3348 86.8415 28.2073 86.7089C28.0796 86.5766 27.9825 86.421 27.9154 86.2427C27.8484 86.0647 27.8149 85.8739 27.8149 85.6712V85.2884ZM28.4921 85.6712C28.4921 85.7859 28.5086 85.896 28.5412 86.0025C28.5739 86.1087 28.623 86.203 28.6883 86.2845C28.7536 86.3662 28.8362 86.4315 28.9362 86.4807C29.0358 86.5298 29.1528 86.5542 29.2871 86.5542C29.418 86.5542 29.5324 86.5298 29.6307 86.4807C29.7289 86.4315 29.8098 86.3662 29.8734 86.2845C29.9373 86.2027 29.9844 86.1087 30.016 86.0025C30.0469 85.8963 30.0625 85.7859 30.0625 85.6712V85.2884C30.0625 85.174 30.0461 85.0636 30.0134 84.9574C29.9808 84.8512 29.9325 84.7578 29.8689 84.6777C29.805 84.5976 29.7232 84.5332 29.6233 84.4841C29.5236 84.4349 29.4083 84.4102 29.2775 84.4102C29.1466 84.4102 29.0322 84.4349 28.9339 84.4841C28.8357 84.5332 28.7539 84.5976 28.6886 84.6777C28.623 84.7578 28.5739 84.8512 28.5415 84.9574C28.5089 85.0636 28.4924 85.174 28.4924 85.2884V85.6712H28.4921Z" fill="#C8D2E7"/>
</svg>
